<?xml version="1.0" encoding="UTF-8"?>
<svg id="Layer_1" data-name="Layer 1" xmlns="http://www.w3.org/2000/svg" viewBox="0 0 175.06 136.71">
  <defs>
    <style>
      .cls-1 {
        fill: #45441A;
      }
    </style>
  </defs>
  <g>
    <path class="cls-1" d="M51.33,51.08c-4.8,0-8.5-1.09-11.09-3.27-2.59-2.18-3.89-5.73-3.89-10.64V.82c.6-.16,1.46-.34,2.58-.53,1.12-.19,2.3-.29,3.56-.29,2.67,0,4.61.46,5.81,1.39,1.2.93,1.8,2.65,1.8,5.16v4.42h10.72c.33.6.64,1.35.94,2.25.3.9.45,1.9.45,2.99,0,1.91-.42,3.29-1.27,4.13-.85.85-1.98,1.27-3.4,1.27h-7.45v14.57c0,1.42.45,2.43,1.35,3.03.9.6,2.17.9,3.81.9.82,0,1.66-.07,2.54-.2.87-.14,1.64-.31,2.29-.53.49.6.91,1.27,1.27,2.01.35.74.53,1.62.53,2.66,0,2.07-.78,3.77-2.33,5.07-1.56,1.31-4.3,1.96-8.23,1.96Z"/>
    <path class="cls-1" d="M82.6,49.77c-.6.16-1.46.33-2.58.49-1.12.16-2.33.25-3.64.25-2.73,0-4.69-.45-5.89-1.35-1.2-.9-1.8-2.63-1.8-5.2v-24.31c0-1.58.41-2.96,1.23-4.13.82-1.17,1.94-2.2,3.36-3.07,1.91-1.15,4.13-2.02,6.67-2.62,2.54-.6,5.2-.9,7.98-.9,5.95,0,8.92,2.1,8.92,6.3,0,.98-.14,1.9-.41,2.74-.27.85-.6,1.57-.98,2.17-1.04-.22-2.54-.33-4.5-.33-1.42,0-2.88.16-4.38.49-1.5.33-2.82.82-3.97,1.47v28Z"/>
    <path class="cls-1" d="M109.86,39.7c-.6-1.36-1.24-2.89-1.92-4.58-.68-1.69-1.39-3.63-2.13-5.81-.74-2.18-1.5-4.68-2.29-7.49-.79-2.81-1.62-6.04-2.5-9.7.76-.76,1.79-1.43,3.07-2.01,1.28-.57,2.69-.86,4.22-.86,1.91,0,3.49.4,4.75,1.19,1.25.79,2.18,2.28,2.78,4.46,1.09,3.82,2.17,7.6,3.23,11.34,1.06,3.74,2.14,7.46,3.23,11.17h.33c.65-1.85,1.3-3.87,1.92-6.06.63-2.18,1.24-4.43,1.84-6.75.6-2.32,1.16-4.64,1.68-6.96.52-2.32.97-4.6,1.35-6.83.93-.49,1.88-.87,2.87-1.15.98-.27,2.02-.41,3.11-.41,1.91,0,3.57.41,4.99,1.23,1.42.82,2.13,2.24,2.13,4.26,0,2.18-.34,4.79-1.02,7.82-.68,3.03-1.57,6.17-2.66,9.41-1.09,3.25-2.32,6.43-3.68,9.54-1.37,3.11-2.73,5.84-4.09,8.19-3.11,5.35-5.96,9.29-8.55,11.83-2.59,2.54-5.23,3.81-7.9,3.81-2.18,0-4.01-.68-5.48-2.05-1.47-1.37-2.35-3.14-2.62-5.32,1.75-1.47,3.49-3.14,5.24-4.99,1.75-1.86,3.27-3.74,4.58-5.65-.93-.27-1.92-.91-2.99-1.92-1.06-1.01-2.22-2.91-3.48-5.69Z"/>
    <path class="cls-1" d="M107.77,67.5c2.95,0,5.63.3,8.06.9,2.43.6,4.5,1.51,6.22,2.74,1.72,1.23,3.04,2.78,3.97,4.67.93,1.88,1.39,4.11,1.39,6.67v18.34c0,1.42-.4,2.58-1.19,3.48-.79.9-1.73,1.68-2.82,2.33-3.55,2.13-8.54,3.19-14.98,3.19-2.89,0-5.5-.27-7.82-.82-2.32-.54-4.31-1.36-5.98-2.46-1.67-1.09-2.95-2.48-3.85-4.17-.9-1.69-1.35-3.66-1.35-5.89,0-3.77,1.12-6.66,3.36-8.68,2.24-2.02,5.7-3.27,10.4-3.77l10.72-1.15v-.57c0-1.58-.7-2.71-2.09-3.4-1.39-.68-3.4-1.02-6.02-1.02-2.02,0-4.03.22-6.02.65-1.99.44-3.78.98-5.36,1.64-.71-.49-1.31-1.24-1.8-2.25-.49-1.01-.74-2.06-.74-3.15,0-1.42.34-2.55,1.02-3.4.68-.84,1.73-1.57,3.15-2.17,1.58-.6,3.45-1.04,5.61-1.31,2.15-.27,4.19-.41,6.1-.41ZM108.43,99.67c.93,0,1.95-.09,3.07-.29,1.12-.19,1.95-.45,2.5-.78v-6.55l-5.89.49c-1.53.11-2.78.44-3.76.98-.98.55-1.47,1.37-1.47,2.46s.42,1.98,1.27,2.66c.84.68,2.28,1.02,4.3,1.02Z"/>
    <path class="cls-1" d="M175.06,108.43c-.6.16-1.46.33-2.58.49-1.12.16-2.33.25-3.64.25-2.73,0-4.69-.45-5.89-1.35-1.2-.9-1.8-2.63-1.8-5.2v-19.32c0-1.69-.51-2.93-1.51-3.72-1.01-.79-2.33-1.19-3.97-1.19-1.09,0-2.12.14-3.07.41-.96.27-1.87.63-2.74,1.06v28.57c-.6.16-1.46.33-2.58.49-1.12.16-2.33.25-3.64.25-2.73,0-4.69-.45-5.89-1.35-1.2-.9-1.8-2.63-1.8-5.2v-24.64c0-1.47.31-2.67.94-3.6.63-.93,1.49-1.77,2.58-2.54,1.85-1.31,4.19-2.36,7-3.15,2.81-.79,5.93-1.19,9.37-1.19,6.17,0,10.91,1.35,14.24,4.05,3.33,2.7,4.99,6.48,4.99,11.34v25.54Z"/>
  </g>
  <g>
    <path class="cls-1" d="M46.43,97.49l-17.88,28.99c-1.65,2.67-1.23,6.12,1.01,8.32h0c3.22,3.15,8.57,2.3,10.65-1.69l14.7-28.21"/>
    <path class="cls-1" d="M68.72,63.95c-14.07-5.79-30.18.92-35.97,14.99-5.79,14.07.92,30.18,14.99,35.97,14.07,5.79,30.18-.92,35.97-14.99,5.79-14.07-.92-30.18-14.99-35.97ZM71.35,96.43c-1.02,1.43-2.21,1.38-8.55,2.87-9.43,2.22-9.03-.88-10.99-2.08-2.98-1.83-6.63-6.25-6.8-8.78-.23-3.29,1.15-6.18,1.73-7.84,1.86-4.52,6.57-3.64,8.07-3.07,2.56.97,2.11,4.13,5.25,6.05,3.36,2.05,5.78-.37,8.72,1.51,3.36,2.15,4.77,8.23,2.56,11.33Z"/>
    <circle class="cls-1" cx="63.41" cy="90.65" r="3.15"/>
  </g>
</svg>