<?xml version="1.0" encoding="UTF-8"?>
<svg id="Layer_1" data-name="Layer 1" xmlns="http://www.w3.org/2000/svg" viewBox="0 0 123.22 158.34">
  <defs>
    <style>
      .cls-1 {
        fill: #898433;
      }
    </style>
  </defs>
  <path class="cls-1" d="M39.94,75.36L2.11,136.68c-3.48,5.65-2.59,12.95,2.15,17.6h0c6.81,6.67,18.13,4.87,22.53-3.58l31.1-59.68"/>
  <path class="cls-1" d="M87.1,4.4C57.32-7.85,23.26,6.35,11,36.12c-12.25,29.77,1.95,63.84,31.72,76.1,29.77,12.25,63.84-1.95,76.1-31.72,12.25-29.77-1.95-63.84-31.72-76.1ZM92.66,73.12c-2.16,3.03-4.67,2.92-18.08,6.08-19.95,4.7-19.11-1.85-23.25-4.39-6.31-3.87-14.02-13.22-14.39-18.58-.48-6.95,2.43-13.07,3.66-16.58,3.94-9.57,13.9-7.7,17.07-6.49,5.41,2.06,4.47,8.73,11.12,12.8,7.1,4.35,12.22-.79,18.45,3.19,7.11,4.54,10.1,17.41,5.41,23.98Z"/>
  <circle class="cls-1" cx="75.87" cy="60.88" r="6.67"/>
</svg>